<mxfile host="Electron" modified="2024-01-15T17:17:03.188Z" agent="Mozilla/5.0 (Windows NT 10.0; Win64; x64) AppleWebKit/537.36 (KHTML, like Gecko) draw.io/21.1.2 Chrome/106.0.5249.199 Electron/21.4.3 Safari/537.36" etag="bLkmXC-lJLi0sNrq7qBP" version="21.1.2" type="device">
  <diagram name="PÃ¡gina-1" id="15zTdtoMW9P6-QUeW9Gj">
    <mxGraphModel dx="1114" dy="674" grid="1" gridSize="10" guides="1" tooltips="1" connect="1" arrows="1" fold="1" page="1" pageScale="1" pageWidth="827" pageHeight="1169" math="0" shadow="0">
      <root>
        <mxCell id="0" />
        <mxCell id="1" parent="0" />
        <mxCell id="pegP6v5SRdg3JCV7oIOy-33" style="edgeStyle=orthogonalEdgeStyle;rounded=0;orthogonalLoop=1;jettySize=auto;html=1;entryX=0;entryY=0.5;entryDx=0;entryDy=0;exitX=0.438;exitY=1.01;exitDx=0;exitDy=0;exitPerimeter=0;" parent="1" source="Z39Z_3SRcvqseODND6B9-15" target="Z2y-x5nXowwuoU0jZPOC-1" edge="1">
          <mxGeometry relative="1" as="geometry">
            <mxPoint x="99.34000000000003" y="132.98000000000002" as="targetPoint" />
          </mxGeometry>
        </mxCell>
        <mxCell id="pegP6v5SRdg3JCV7oIOy-34" style="edgeStyle=orthogonalEdgeStyle;rounded=0;orthogonalLoop=1;jettySize=auto;html=1;entryX=0;entryY=0.158;entryDx=0;entryDy=0;entryPerimeter=0;exitX=0.438;exitY=1.021;exitDx=0;exitDy=0;exitPerimeter=0;" parent="1" source="Z39Z_3SRcvqseODND6B9-15" target="Z2y-x5nXowwuoU0jZPOC-2" edge="1">
          <mxGeometry relative="1" as="geometry">
            <mxPoint x="100" y="259.97" as="targetPoint" />
          </mxGeometry>
        </mxCell>
        <mxCell id="Z39Z_3SRcvqseODND6B9-15" value="" style="html=1;verticalLabelPosition=bottom;align=center;labelBackgroundColor=#ffffff;verticalAlign=top;strokeWidth=2;strokeColor=#0080F0;shadow=0;dashed=0;shape=mxgraph.ios7.icons.folder;aspect=fixed;" parent="1" vertex="1">
          <mxGeometry x="30" y="30" width="40" height="26" as="geometry" />
        </mxCell>
        <mxCell id="Z39Z_3SRcvqseODND6B9-16" value="&lt;div style=&quot;color: rgb(204, 204, 204); background-color: rgb(31, 31, 31); font-family: Consolas, &amp;quot;Courier New&amp;quot;, monospace; font-weight: normal; font-size: 14px; line-height: 19px;&quot;&gt;&lt;div&gt;utils&lt;/div&gt;&lt;/div&gt;" style="text;whiteSpace=wrap;html=1;" parent="1" vertex="1">
          <mxGeometry x="90" y="30" width="450" height="40" as="geometry" />
        </mxCell>
        <mxCell id="pegP6v5SRdg3JCV7oIOy-25" value="&lt;div style=&quot;color: rgb(204, 204, 204); background-color: rgb(31, 31, 31); font-family: Consolas, &amp;quot;Courier New&amp;quot;, monospace; font-weight: normal; font-size: 14px; line-height: 19px;&quot;&gt;&lt;div&gt;index.ts&lt;/div&gt;&lt;/div&gt;" style="text;whiteSpace=wrap;html=1;" parent="1" vertex="1">
          <mxGeometry x="100" y="80" width="450" height="40" as="geometry" />
        </mxCell>
        <mxCell id="pegP6v5SRdg3JCV7oIOy-27" value="&lt;div style=&quot;color: rgb(204, 204, 204); background-color: rgb(31, 31, 31); font-family: Consolas, &amp;quot;Courier New&amp;quot;, monospace; font-weight: normal; font-size: 14px; line-height: 19px;&quot;&gt;&lt;div&gt;dateFunctions.ts&lt;/div&gt;&lt;/div&gt;" style="text;whiteSpace=wrap;html=1;" parent="1" vertex="1">
          <mxGeometry x="100" y="200" width="450" height="40" as="geometry" />
        </mxCell>
        <mxCell id="Z2y-x5nXowwuoU0jZPOC-1" value="&lt;div style=&quot;color: rgb(204, 204, 204); background-color: rgb(31, 31, 31); font-family: Consolas, &amp;quot;Courier New&amp;quot;, monospace; font-weight: normal; font-size: 14px; line-height: 19px;&quot;&gt;&lt;div&gt;&lt;span style=&quot;color: #c586c0;&quot;&gt;export&lt;/span&gt;&lt;span style=&quot;color: #cccccc;&quot;&gt; &lt;/span&gt;&lt;span style=&quot;color: #569cd6;&quot;&gt;*&lt;/span&gt;&lt;span style=&quot;color: #cccccc;&quot;&gt; &lt;/span&gt;&lt;span style=&quot;color: #c586c0;&quot;&gt;as&lt;/span&gt;&lt;span style=&quot;color: #cccccc;&quot;&gt; &lt;/span&gt;&lt;span style=&quot;color: #9cdcfe;&quot;&gt;dateFunctions&lt;/span&gt;&lt;span style=&quot;color: #cccccc;&quot;&gt; &lt;/span&gt;&lt;span style=&quot;color: #c586c0;&quot;&gt;from&lt;/span&gt;&lt;span style=&quot;color: #cccccc;&quot;&gt; &lt;/span&gt;&lt;span style=&quot;color: #ce9178;&quot;&gt;&#39;./dateFunctions&#39;&lt;/span&gt;&lt;span style=&quot;color: #cccccc;&quot;&gt;;&lt;/span&gt;&lt;/div&gt;&lt;/div&gt;" style="text;whiteSpace=wrap;html=1;strokeColor=default;" vertex="1" parent="1">
          <mxGeometry x="100" y="110" width="660" height="40" as="geometry" />
        </mxCell>
        <mxCell id="Z2y-x5nXowwuoU0jZPOC-2" value="&lt;div style=&quot;color: rgb(204, 204, 204); background-color: rgb(31, 31, 31); font-family: Consolas, &amp;quot;Courier New&amp;quot;, monospace; font-weight: normal; font-size: 14px; line-height: 19px;&quot;&gt;&lt;div&gt;&lt;span style=&quot;color: #c586c0;&quot;&gt;import&lt;/span&gt;&lt;span style=&quot;color: #cccccc;&quot;&gt; { &lt;/span&gt;&lt;span style=&quot;color: #9cdcfe;&quot;&gt;formatDistanceToNow&lt;/span&gt;&lt;span style=&quot;color: #cccccc;&quot;&gt; } &lt;/span&gt;&lt;span style=&quot;color: #c586c0;&quot;&gt;from&lt;/span&gt;&lt;span style=&quot;color: #cccccc;&quot;&gt; &lt;/span&gt;&lt;span style=&quot;color: #ce9178;&quot;&gt;&quot;date-fns&quot;&lt;/span&gt;&lt;span style=&quot;color: #cccccc;&quot;&gt;;&lt;/span&gt;&lt;/div&gt;&lt;br&gt;&lt;div&gt;&lt;span style=&quot;color: #c586c0;&quot;&gt;import&lt;/span&gt;&lt;span style=&quot;color: #cccccc;&quot;&gt; { &lt;/span&gt;&lt;span style=&quot;color: #9cdcfe;&quot;&gt;es&lt;/span&gt;&lt;span style=&quot;color: #cccccc;&quot;&gt; } &lt;/span&gt;&lt;span style=&quot;color: #c586c0;&quot;&gt;from&lt;/span&gt;&lt;span style=&quot;color: #cccccc;&quot;&gt; &lt;/span&gt;&lt;span style=&quot;color: #ce9178;&quot;&gt;&#39;date-fns/locale&#39;&lt;/span&gt;&lt;/div&gt;&lt;br&gt;&lt;div&gt;&lt;span style=&quot;color: #c586c0;&quot;&gt;export&lt;/span&gt;&lt;span style=&quot;color: #cccccc;&quot;&gt; &lt;/span&gt;&lt;span style=&quot;color: #569cd6;&quot;&gt;const&lt;/span&gt;&lt;span style=&quot;color: #cccccc;&quot;&gt; &lt;/span&gt;&lt;span style=&quot;color: #dcdcaa;&quot;&gt;getFormatDistanceToNow&lt;/span&gt;&lt;span style=&quot;color: #cccccc;&quot;&gt; &lt;/span&gt;&lt;span style=&quot;color: #d4d4d4;&quot;&gt;=&lt;/span&gt;&lt;span style=&quot;color: #cccccc;&quot;&gt; (&lt;/span&gt;&lt;span style=&quot;color: #9cdcfe;&quot;&gt;date&lt;/span&gt;&lt;span style=&quot;color: #d4d4d4;&quot;&gt;:&lt;/span&gt;&lt;span style=&quot;color: #cccccc;&quot;&gt; &lt;/span&gt;&lt;span style=&quot;color: #4ec9b0;&quot;&gt;number&lt;/span&gt;&lt;span style=&quot;color: #cccccc;&quot;&gt;) &lt;/span&gt;&lt;span style=&quot;color: #569cd6;&quot;&gt;=&amp;gt;&lt;/span&gt;&lt;span style=&quot;color: #cccccc;&quot;&gt; {&lt;/span&gt;&lt;/div&gt;&lt;div&gt;&lt;span style=&quot;color: #cccccc;&quot;&gt;&amp;nbsp; &amp;nbsp; &lt;/span&gt;&lt;span style=&quot;color: #569cd6;&quot;&gt;const&lt;/span&gt;&lt;span style=&quot;color: #cccccc;&quot;&gt; &lt;/span&gt;&lt;span style=&quot;color: #4fc1ff;&quot;&gt;fromNow&lt;/span&gt;&lt;span style=&quot;color: #cccccc;&quot;&gt; &amp;nbsp;&lt;/span&gt;&lt;span style=&quot;color: #d4d4d4;&quot;&gt;=&lt;/span&gt;&lt;span style=&quot;color: #cccccc;&quot;&gt; &lt;/span&gt;&lt;span style=&quot;color: #dcdcaa;&quot;&gt;formatDistanceToNow&lt;/span&gt;&lt;span style=&quot;color: #cccccc;&quot;&gt;(&lt;/span&gt;&lt;span style=&quot;color: #9cdcfe;&quot;&gt;date&lt;/span&gt;&lt;span style=&quot;color: #cccccc;&quot;&gt;, {&lt;/span&gt;&lt;span style=&quot;color: #9cdcfe;&quot;&gt;locale&lt;/span&gt;&lt;span style=&quot;color: #9cdcfe;&quot;&gt;:&lt;/span&gt;&lt;span style=&quot;color: #cccccc;&quot;&gt; &lt;/span&gt;&lt;span style=&quot;color: #4fc1ff;&quot;&gt;es&lt;/span&gt;&lt;span style=&quot;color: #cccccc;&quot;&gt;});&lt;/span&gt;&lt;/div&gt;&lt;br&gt;&lt;div&gt;&lt;span style=&quot;color: #cccccc;&quot;&gt;&amp;nbsp; &amp;nbsp; &lt;/span&gt;&lt;span style=&quot;color: #c586c0;&quot;&gt;return&lt;/span&gt;&lt;span style=&quot;color: #cccccc;&quot;&gt; &lt;/span&gt;&lt;span style=&quot;color: #ce9178;&quot;&gt;`hace &lt;/span&gt;&lt;span style=&quot;color: #569cd6;&quot;&gt;${&lt;/span&gt;&lt;span style=&quot;color: #4fc1ff;&quot;&gt;fromNow&lt;/span&gt;&lt;span style=&quot;color: #569cd6;&quot;&gt;}&lt;/span&gt;&lt;span style=&quot;color: #ce9178;&quot;&gt;`&lt;/span&gt;&lt;/div&gt;&lt;div&gt;&lt;span style=&quot;color: #cccccc;&quot;&gt;}&lt;/span&gt;&lt;/div&gt;&lt;/div&gt;" style="text;whiteSpace=wrap;html=1;strokeColor=default;" vertex="1" parent="1">
          <mxGeometry x="100" y="230" width="660" height="190" as="geometry" />
        </mxCell>
      </root>
    </mxGraphModel>
  </diagram>
</mxfile>
